<?xml version="1.0" standalone="no"?>
<!DOCTYPE svg PUBLIC "-//W3C//DTD SVG 20010904//EN"
 "http://www.w3.org/TR/2001/REC-SVG-20010904/DTD/svg10.dtd">
<svg version="1.0" xmlns="http://www.w3.org/2000/svg"
 width="512.000000pt" height="512.000000pt" viewBox="0 0 512.000000 512.000000"
 preserveAspectRatio="xMidYMid meet">

<g transform="translate(0.000000,512.000000) scale(0.100000,-0.100000)"
fill="#000000" stroke="none">
<path d="M1037 3483 c-4 -3 -7 -80 -7 -169 l0 -164 -167 -2 -168 -3 -3 -507
-2 -508 170 0 170 0 0 -170 0 -170 170 0 170 0 0 170 0 170 -170 0 -170 0 2
508 3 507 508 3 507 2 0 -340 0 -340 -170 0 -170 0 0 170 0 170 -167 -2 -168
-3 -3 -167 -2 -168 170 0 170 0 0 -170 0 -170 340 0 340 0 0 510 0 510 -170 0
-170 0 0 170 0 169 -503 1 c-277 0 -506 -3 -510 -7z"/>
<path d="M3070 3320 l0 -170 -170 0 -170 0 0 -170 0 -170 170 0 170 0 0 -170
0 -170 510 0 510 0 0 -170 0 -170 -680 0 -680 0 0 -170 0 -170 680 0 680 0 0
170 0 170 168 2 167 3 0 165 0 165 -167 3 -168 2 -2 168 -3 167 -507 3 -508 2
0 170 0 170 679 0 679 0 -2 168 -1 167 -677 2 -678 3 0 -170z"/>
</g>
</svg>
