<?xml version="1.0" standalone="no"?>
<!DOCTYPE svg PUBLIC "-//W3C//DTD SVG 20010904//EN"
 "http://www.w3.org/TR/2001/REC-SVG-20010904/DTD/svg10.dtd">
<svg version="1.0" xmlns="http://www.w3.org/2000/svg"
 width="512.000000pt" height="512.000000pt" viewBox="0 0 512.000000 512.000000"
 preserveAspectRatio="xMidYMid meet">

<g transform="translate(0.000000,512.000000) scale(0.100000,-0.100000)"
fill="#000000" stroke="none">
<path d="M3751 4654 c-40 -7 -74 -14 -76 -16 -1 -2 8 -59 21 -128 13 -69 35
-190 50 -270 33 -180 42 -220 54 -220 10 0 12 22 40 325 11 121 23 244 26 273
6 61 10 59 -115 36z m89 -41 c0 -39 -41 -457 -45 -461 -6 -6 -13 27 -50 228
-20 107 -38 205 -40 217 -4 18 0 24 22 29 16 3 33 7 38 9 6 2 25 4 43 4 28 1
32 -2 32 -26z"/>
<path d="M4314 4553 c-69 -125 -334 -635 -334 -643 0 -5 3 -10 8 -10 4 0 72
71 152 157 80 87 197 213 260 281 63 68 115 129 115 134 0 10 -162 108 -178
108 -4 0 -15 -12 -23 -27z m103 -40 c34 -20 63 -40 63 -44 0 -6 -74 -91 -143
-164 -10 -11 -76 -82 -145 -157 -69 -75 -128 -135 -130 -133 -2 2 30 68 72
147 42 79 104 198 138 265 35 68 67 123 72 123 5 0 38 -17 73 -37z"/>
<path d="M1710 4254 c-583 -140 -728 -175 -895 -214 -538 -128 -617 -149 -641
-171 l-24 -22 0 -1019 0 -1019 25 -23 c30 -28 11 -26 635 -61 528 -30 520 -29
520 -55 0 -14 -9 -21 -32 -24 -18 -3 -271 -23 -562 -45 -473 -35 -531 -41
-555 -59 l-26 -19 -3 -429 c-1 -236 0 -438 2 -450 3 -11 20 -28 38 -37 18 -9
166 -48 328 -86 162 -39 551 -131 864 -205 313 -75 582 -136 598 -136 29 0
171 31 613 135 127 30 475 111 774 180 299 69 556 132 573 141 16 8 33 26 38
40 6 16 10 406 10 1005 l0 981 -28 28 c-22 21 -41 30 -83 34 -63 7 -766 46
-821 46 -37 0 -38 1 -38 35 0 28 4 36 23 39 12 3 216 19 452 36 454 34 466 36
485 86 6 15 10 195 10 425 0 437 -1 445 -57 467 -15 7 -291 73 -613 147 -322
75 -748 174 -948 221 -200 46 -380 84 -400 83 -20 -1 -138 -25 -262 -55z m170
-1279 l0 -1115 -22 0 c-47 -1 -1454 81 -1486 86 l-32 5 2 887 3 887 695 165
c382 91 724 173 760 182 36 9 68 16 73 17 4 0 7 -501 7 -1114z m515 1045 c165
-39 546 -128 848 -198 l547 -128 1 -283 c1 -155 -1 -284 -3 -287 -3 -2 -198
19 -434 46 -236 28 -441 48 -455 45 -15 -3 -37 -17 -50 -31 -24 -25 -24 -29
-27 -257 -2 -150 1 -245 8 -270 20 -68 13 -67 513 -98 249 -15 452 -28 452
-28 0 -337 -6 -1736 -8 -1737 -1 -1 -285 -68 -632 -148 -346 -80 -726 -168
-844 -196 -118 -27 -218 -50 -223 -50 -4 0 -8 173 -8 384 l0 384 33 6 c17 3
266 33 552 66 286 33 537 65 557 70 64 18 68 35 68 304 0 129 -4 246 -10 261
-5 14 -22 30 -37 36 -26 10 -225 1 -918 -41 -88 -6 -179 -10 -202 -10 l-43 0
0 1115 c0 613 3 1115 8 1115 4 0 142 -32 307 -70z m695 -2405 c0 -100 -1 -105
-21 -105 -11 0 -143 11 -292 25 -150 13 -479 43 -732 65 -526 46 -525 46 -525
65 0 18 2 18 190 5 199 -14 292 -14 530 0 113 7 340 20 505 30 165 9 310 18
323 19 21 1 22 -1 22 -104z m-1335 -185 c193 -17 373 -34 400 -38 48 -7 45 -8
-65 -20 -112 -12 -125 -12 -457 28 -188 22 -345 41 -350 42 -4 1 17 4 47 8 30
4 60 7 65 8 6 1 168 -12 360 -28z m-115 -228 l235 -27 3 -388 c1 -213 -1 -387
-5 -387 -5 0 -350 83 -768 183 l-760 182 -3 296 -2 295 532 -63 c293 -35 639
-76 768 -91z"/>
<path d="M4685 4025 c-50 -24 -460 -203 -504 -221 -40 -16 -60 -51 -23 -41 9
3 62 11 117 18 55 7 183 24 285 38 l185 26 -3 70 c-3 81 -11 125 -20 124 -4 0
-20 -7 -37 -14z m29 -56 c11 -55 7 -109 -7 -109 -20 0 -387 -49 -422 -56 -60
-12 -9 16 165 91 96 42 189 82 205 90 43 21 52 19 59 -16z"/>
</g>
</svg>
